<?xml version="1.0" encoding="utf-8"?>
<!-- Generator: Adobe Illustrator 22.0.0, SVG Export Plug-In . SVG Version: 6.00 Build 0)  -->
<svg version="1.1" id="Calque_1" xmlns="http://www.w3.org/2000/svg" xmlns:xlink="http://www.w3.org/1999/xlink" x="0px" y="0px"
	 viewBox="0 0 70.9 71" style="enable-background:new 0 0 70.9 71;" xml:space="preserve">
<style type="text/css">
	.st0{display:none;fill:#11AA4D;}
	.st1{fill:none;stroke:#000000;}
	.st2{fill:none;stroke:#000000;stroke-width:0.7;}
	.st3{fill:none;stroke:#000000;stroke-width:0.3;}
</style>
<rect x="-7.6" y="-3" class="st0" width="90.1" height="86"/>
<line class="st1" x1="0.5" y1="0" x2="0.5" y2="71"/>
<line class="st2" x1="35.7" y1="71" x2="35.6" y2="0.2"/>
<line class="st3" x1="7.6" y1="0.2" x2="7.6" y2="71"/>
<line class="st3" x1="14.5" y1="0.2" x2="14.5" y2="71"/>
<line class="st3" x1="21.6" y1="0.1" x2="21.6" y2="71"/>
<line class="st3" x1="28.5" y1="0.1" x2="28.5" y2="71"/>
<line class="st3" x1="43" y1="0.2" x2="43" y2="71"/>
<line class="st3" x1="49.9" y1="0.3" x2="49.9" y2="71"/>
<line class="st3" x1="57" y1="0.2" x2="57" y2="71"/>
<line class="st3" x1="63.9" y1="0.2" x2="63.9" y2="71"/>
<line class="st1" x1="70.9" y1="0.5" x2="0" y2="0.5"/>
<line class="st2" x1="0.6" y1="35.9" x2="70.9" y2="35.5"/>
<line class="st3" x1="70.9" y1="7.4" x2="0.5" y2="7.7"/>
<line class="st3" x1="70.9" y1="14.3" x2="0.5" y2="14.6"/>
<line class="st3" x1="70.9" y1="21.4" x2="0.7" y2="21.7"/>
<line class="st3" x1="70.9" y1="28.3" x2="0.7" y2="28.6"/>
<line class="st3" x1="70.9" y1="42.8" x2="0.6" y2="43.1"/>
<line class="st3" x1="70.9" y1="49.7" x2="0.6" y2="50"/>
<line class="st3" x1="70.9" y1="56.8" x2="0.7" y2="57.1"/>
<line class="st3" x1="70.9" y1="63.7" x2="0.8" y2="64"/>
</svg>
